# ProBuilder 6.0.5
# https://unity3d.com/unity/features/worldbuilding/probuilder
# 2025/05/21 1:05:54

mtllib ./cylinder_0.5_2.mtl
o cylinder_0.5_2

g Cylinder
v 23.5 38 35
v 23.5 38.66667 35
v 23.53806 38 35.19134
v 23.53806 38.66667 35.19134
v 23.64645 38 35.35355
v 23.64645 38.66667 35.35355
v 23.80866 38 35.46194
v 23.80866 38.66667 35.46194
v 24 38 35.5
v 24 38.66667 35.5
v 24.19134 38 35.46194
v 24.19134 38.66667 35.46194
v 24.35355 38 35.35355
v 24.35355 38.66667 35.35355
v 24.46194 38 35.19134
v 24.46194 38.66667 35.19134
v 24.5 38 35
v 24.5 38.66667 35
v 24.46194 38 34.80866
v 24.46194 38.66667 34.80866
v 24.35355 38 34.64645
v 24.35355 38.66667 34.64645
v 24.19134 38 34.53806
v 24.19134 38.66667 34.53806
v 24 38 34.5
v 24 38.66667 34.5
v 23.80866 38 34.53806
v 23.80866 38.66667 34.53806
v 23.64645 38 34.64645
v 23.64645 38.66667 34.64645
v 23.53806 38 34.80866
v 23.53806 38.66667 34.80866
v 23.5 39.33333 35
v 23.53806 39.33333 35.19134
v 23.64645 39.33333 35.35355
v 23.80866 39.33333 35.46194
v 24 39.33333 35.5
v 24.19134 39.33333 35.46194
v 24.35355 39.33333 35.35355
v 24.46194 39.33333 35.19134
v 24.5 39.33333 35
v 24.46194 39.33333 34.80866
v 24.35355 39.33333 34.64645
v 24.19134 39.33333 34.53806
v 24 39.33333 34.5
v 23.80866 39.33333 34.53806
v 23.64645 39.33333 34.64645
v 23.53806 39.33333 34.80866
v 23.5 40 35
v 23.53806 40 35.19134
v 23.64645 40 35.35355
v 23.80866 40 35.46194
v 24 40 35.5
v 24.19134 40 35.46194
v 24.35355 40 35.35355
v 24.46194 40 35.19134
v 24.5 40 35
v 24.46194 40 34.80866
v 24.35355 40 34.64645
v 24.19134 40 34.53806
v 24 40 34.5
v 23.80866 40 34.53806
v 23.64645 40 34.64645
v 23.53806 40 34.80866
v 24 38 35
v 24 40 35

vt -0.09754519 -1
vt -0.09754519 -0.3333333
vt 0.09754514 -1
vt 0.09754514 -0.3333333
vt -0.09754519 0.3333334
vt 0.09754514 0.3333334
vt -0.0975452 1
vt 0.09754513 1
vt -0.5 0
vt 0 0
vt -0.4619398 0.1913417
vt 0.5 0
vt 0.4619398 0.1913417
vt -0.3535534 0.3535534
vt 0.3535534 0.3535534
vt -0.1913417 0.4619398
vt 0.1913417 0.4619398
vt 2.185569E-08 0.5
vt 0.4619398 -0.1913417
vt -0.4619398 -0.1913417
vt 0.3535534 -0.3535534
vt -0.3535534 -0.3535534
vt 0.1913418 -0.4619398
vt -0.1913418 -0.4619398
vt -5.96244E-09 -0.5

vn -0.9807853 0 0.1950904
vn -0.8314697 0 0.5555702
vn -0.5555702 0 0.8314697
vn -0.1950904 0 0.9807853
vn 0.1950903 0 0.9807853
vn 0.5555703 0 0.8314696
vn 0.8314696 0 0.5555703
vn 0.9807853 0 0.1950903
vn 0.9807853 0 -0.1950904
vn 0.8314697 0 -0.5555702
vn 0.5555704 0 -0.8314695
vn 0.1950903 0 -0.9807853
vn -0.1950904 0 -0.9807853
vn -0.5555702 0 -0.8314697
vn -0.8314695 0 -0.5555704
vn -0.9807853 0 -0.1950902
vn 0 -1 0
vn 0 1 0

usemtl ProBuilderDefault
f 1/9/17 65/10/17 3/11/17
f 3/11/17 65/10/17 5/14/17
f 5/14/17 65/10/17 7/16/17
f 7/16/17 65/10/17 9/18/17
f 9/18/17 65/10/17 11/17/17
f 11/17/17 65/10/17 13/15/17
f 13/15/17 65/10/17 15/13/17
f 15/13/17 65/10/17 17/12/17
f 17/12/17 65/10/17 19/19/17
f 19/19/17 65/10/17 21/21/17
f 21/21/17 65/10/17 23/23/17
f 23/23/17 65/10/17 25/25/17
f 25/25/17 65/10/17 27/24/17
f 27/24/17 65/10/17 29/22/17
f 29/22/17 65/10/17 31/20/17
f 31/20/17 65/10/17 1/9/17
f 50/13/18 66/10/18 49/12/18
f 51/15/18 66/10/18 50/13/18
f 52/17/18 66/10/18 51/15/18
f 53/18/18 66/10/18 52/17/18
f 54/16/18 66/10/18 53/18/18
f 55/14/18 66/10/18 54/16/18
f 56/11/18 66/10/18 55/14/18
f 57/9/18 66/10/18 56/11/18
f 58/20/18 66/10/18 57/9/18
f 59/22/18 66/10/18 58/20/18
f 60/24/18 66/10/18 59/22/18
f 61/25/18 66/10/18 60/24/18
f 62/23/18 66/10/18 61/25/18
f 63/21/18 66/10/18 62/23/18
f 64/19/18 66/10/18 63/21/18
f 49/12/18 66/10/18 64/19/18
f 4/4/1 2/2/1 1/1/1
f 1/1/1 3/3/1 4/4/1
f 6/4/2 4/2/2 3/1/2
f 3/1/2 5/3/2 6/4/2
f 8/4/3 6/2/3 5/1/3
f 5/1/3 7/3/3 8/4/3
f 10/4/4 8/2/4 7/1/4
f 7/1/4 9/3/4 10/4/4
f 12/4/5 10/2/5 9/1/5
f 9/1/5 11/3/5 12/4/5
f 14/4/6 12/2/6 11/1/6
f 11/1/6 13/3/6 14/4/6
f 16/4/7 14/2/7 13/1/7
f 13/1/7 15/3/7 16/4/7
f 18/4/8 16/2/8 15/1/8
f 15/1/8 17/3/8 18/4/8
f 20/4/9 18/2/9 17/1/9
f 17/1/9 19/3/9 20/4/9
f 22/4/10 20/2/10 19/1/10
f 19/1/10 21/3/10 22/4/10
f 24/4/11 22/2/11 21/1/11
f 21/1/11 23/3/11 24/4/11
f 26/4/12 24/2/12 23/1/12
f 23/1/12 25/3/12 26/4/12
f 28/4/13 26/2/13 25/1/13
f 25/1/13 27/3/13 28/4/13
f 30/4/14 28/2/14 27/1/14
f 27/1/14 29/3/14 30/4/14
f 32/4/15 30/2/15 29/1/15
f 29/1/15 31/3/15 32/4/15
f 2/4/16 32/2/16 31/1/16
f 31/1/16 1/3/16 2/4/16
f 34/6/1 33/5/1 2/2/1
f 2/2/1 4/4/1 34/6/1
f 35/6/2 34/5/2 4/2/2
f 4/2/2 6/4/2 35/6/2
f 36/6/3 35/5/3 6/2/3
f 6/2/3 8/4/3 36/6/3
f 37/6/4 36/5/4 8/2/4
f 8/2/4 10/4/4 37/6/4
f 38/6/5 37/5/5 10/2/5
f 10/2/5 12/4/5 38/6/5
f 39/6/6 38/5/6 12/2/6
f 12/2/6 14/4/6 39/6/6
f 40/6/7 39/5/7 14/2/7
f 14/2/7 16/4/7 40/6/7
f 41/6/8 40/5/8 16/2/8
f 16/2/8 18/4/8 41/6/8
f 42/6/9 41/5/9 18/2/9
f 18/2/9 20/4/9 42/6/9
f 43/6/10 42/5/10 20/2/10
f 20/2/10 22/4/10 43/6/10
f 44/6/11 43/5/11 22/2/11
f 22/2/11 24/4/11 44/6/11
f 45/6/12 44/5/12 24/2/12
f 24/2/12 26/4/12 45/6/12
f 46/6/13 45/5/13 26/2/13
f 26/2/13 28/4/13 46/6/13
f 47/6/14 46/5/14 28/2/14
f 28/2/14 30/4/14 47/6/14
f 48/6/15 47/5/15 30/2/15
f 30/2/15 32/4/15 48/6/15
f 33/6/16 48/5/16 32/2/16
f 32/2/16 2/4/16 33/6/16
f 50/8/1 49/7/1 33/5/1
f 33/5/1 34/6/1 50/8/1
f 51/8/2 50/7/2 34/5/2
f 34/5/2 35/6/2 51/8/2
f 52/8/3 51/7/3 35/5/3
f 35/5/3 36/6/3 52/8/3
f 53/8/4 52/7/4 36/5/4
f 36/5/4 37/6/4 53/8/4
f 54/8/5 53/7/5 37/5/5
f 37/5/5 38/6/5 54/8/5
f 55/8/6 54/7/6 38/5/6
f 38/5/6 39/6/6 55/8/6
f 56/8/7 55/7/7 39/5/7
f 39/5/7 40/6/7 56/8/7
f 57/8/8 56/7/8 40/5/8
f 40/5/8 41/6/8 57/8/8
f 58/8/9 57/7/9 41/5/9
f 41/5/9 42/6/9 58/8/9
f 59/8/10 58/7/10 42/5/10
f 42/5/10 43/6/10 59/8/10
f 60/8/11 59/7/11 43/5/11
f 43/5/11 44/6/11 60/8/11
f 61/8/12 60/7/12 44/5/12
f 44/5/12 45/6/12 61/8/12
f 62/8/13 61/7/13 45/5/13
f 45/5/13 46/6/13 62/8/13
f 63/8/14 62/7/14 46/5/14
f 46/5/14 47/6/14 63/8/14
f 64/8/15 63/7/15 47/5/15
f 47/5/15 48/6/15 64/8/15
f 49/8/16 64/7/16 48/5/16
f 48/5/16 33/6/16 49/8/16

