# ProBuilder 6.0.5
# https://unity3d.com/unity/features/worldbuilding/probuilder
# 2025/05/21 1:05:54

mtllib ./cylinder_0.5_2.mtl
o cylinder_0.5_2

g Cylinder
v -0.500000 -0.000006 0.000008
v 0.000000 -0.000006 0.000008
v -0.461941 -0.000006 0.191349
v -0.353550 -0.000006 0.353558
v -0.191339 -0.000006 0.461948
v 0.000000 -0.000006 0.500008
v 0.191339 -0.000006 0.461948
v 0.353550 -0.000006 0.353558
v 0.461941 -0.000006 0.191349
v 0.500000 -0.000006 0.000008
v 0.461941 -0.000006 -0.191334
v 0.353550 -0.000006 -0.353542
v 0.191339 -0.000006 -0.461933
v 0.000000 -0.000006 -0.499992
v -0.191339 -0.000006 -0.461933
v -0.353550 -0.000006 -0.353542
v -0.461941 -0.000006 -0.191334
v -0.461941 1.999994 0.191349
v 0.000000 1.999994 0.000008
v -0.500000 1.999994 0.000008
v -0.353550 1.999994 0.353558
v -0.191339 1.999994 0.461949
v 0.000000 1.999994 0.500008
v 0.191339 1.999994 0.461949
v 0.353550 1.999994 0.353558
v 0.461941 1.999994 0.191349
v 0.500000 1.999994 0.000008
v 0.461941 1.999994 -0.191333
v 0.353550 1.999994 -0.353542
v 0.191339 1.999994 -0.461933
v 0.000000 1.999994 -0.499992
v -0.191339 1.999994 -0.461933
v -0.353550 1.999994 -0.353542
v -0.461941 1.999994 -0.191333
v -0.461941 0.666666 0.191349
v -0.500000 0.666666 0.000008
v -0.353550 0.666666 0.353558
v -0.191339 0.666666 0.461949
v 0.000000 0.666666 0.500008
v 0.191339 0.666666 0.461949
v 0.353550 0.666666 0.353558
v 0.461941 0.666666 0.191349
v 0.500000 0.666666 0.000008
v 0.461941 0.666666 -0.191334
v 0.353550 0.666666 -0.353542
v 0.191339 0.666666 -0.461933
v 0.000000 0.666666 -0.499992
v -0.191339 0.666666 -0.461933
v -0.353550 0.666666 -0.353542
v -0.461941 0.666666 -0.191334
v -0.461941 1.333323 0.191349
v -0.500000 1.333323 0.000008
v -0.353550 1.333323 0.353558
v -0.191339 1.333322 0.461949
v 0.000000 1.333322 0.500008
v 0.191339 1.333322 0.461949
v 0.353550 1.333323 0.353558
v 0.461941 1.333323 0.191349
v 0.500000 1.333323 0.000008
v 0.461941 1.333323 -0.191334
v 0.353550 1.333323 -0.353542
v 0.191339 1.333323 -0.461933
v 0.000000 1.333323 -0.499992
v -0.191339 1.333323 -0.461933
v -0.353550 1.333323 -0.353542
v -0.461941 1.333323 -0.191334

vt -0.500000 0.000000
vt -0.097545 -1.000000
vt 0.097545 -1.000000
vt 0.000000 0.000000
vt -0.461940 0.191342
vt 0.097545 -1.000000
vt -0.097545 -1.000000
vt -0.353553 0.353553
vt 0.097545 -1.000000
vt -0.097545 -1.000000
vt -0.191342 0.461940
vt 0.097545 -1.000000
vt -0.097545 -1.000000
vt 0.000000 0.500000
vt 0.097545 -1.000000
vt -0.097545 -1.000000
vt 0.191342 0.461940
vt 0.097545 -1.000000
vt -0.097545 -1.000000
vt 0.353553 0.353553
vt 0.097545 -1.000000
vt -0.097545 -1.000000
vt 0.461940 0.191342
vt 0.097545 -1.000000
vt -0.097545 -1.000000
vt 0.500000 0.000000
vt 0.097545 -1.000000
vt -0.097545 -1.000000
vt 0.461940 -0.191342
vt 0.097545 -1.000000
vt -0.097545 -1.000000
vt 0.353553 -0.353553
vt 0.097545 -1.000000
vt -0.097545 -1.000000
vt 0.191342 -0.461940
vt 0.097545 -1.000000
vt -0.097545 -1.000000
vt -0.000000 -0.500000
vt 0.097545 -1.000000
vt -0.097545 -1.000000
vt -0.191342 -0.461940
vt 0.097545 -1.000000
vt -0.097545 -1.000000
vt -0.353553 -0.353553
vt 0.097545 -1.000000
vt -0.097545 -1.000000
vt -0.461940 -0.191342
vt 0.097545 -1.000000
vt -0.097545 -1.000000
vt 0.461940 0.191342
vt 0.097545 1.000000
vt -0.097545 1.000000
vt 0.000000 0.000000
vt 0.500000 0.000000
vt -0.097545 1.000000
vt 0.097545 1.000000
vt 0.353553 0.353553
vt 0.097545 1.000000
vt -0.097545 1.000000
vt 0.191342 0.461940
vt 0.097545 1.000000
vt -0.097545 1.000000
vt 0.000000 0.500000
vt 0.097545 1.000000
vt -0.097545 1.000000
vt -0.191342 0.461940
vt 0.097545 1.000000
vt -0.097545 1.000000
vt -0.353553 0.353553
vt 0.097545 1.000000
vt -0.097545 1.000000
vt -0.461940 0.191342
vt 0.097545 1.000000
vt -0.097545 1.000000
vt -0.500000 0.000000
vt 0.097545 1.000000
vt -0.097545 1.000000
vt -0.461940 -0.191342
vt 0.097545 1.000000
vt -0.097545 1.000000
vt -0.353553 -0.353553
vt 0.097545 1.000000
vt -0.097545 1.000000
vt -0.191342 -0.461940
vt 0.097545 1.000000
vt -0.097545 1.000000
vt -0.000000 -0.500000
vt 0.097545 1.000000
vt -0.097545 1.000000
vt 0.191342 -0.461940
vt 0.097545 1.000000
vt -0.097545 1.000000
vt 0.353553 -0.353553
vt 0.097545 1.000000
vt -0.097545 1.000000
vt 0.461940 -0.191342
vt 0.097545 1.000000
vt -0.097545 1.000000
vt 0.097545 -0.333333
vt -0.097545 -0.333333
vt -0.097545 -0.333333
vt 0.097545 -0.333333
vt 0.097545 -0.333333
vt -0.097545 -0.333333
vt 0.097545 -0.333333
vt -0.097545 -0.333333
vt 0.097545 -0.333333
vt -0.097545 -0.333333
vt 0.097545 -0.333333
vt -0.097545 -0.333333
vt 0.097545 -0.333333
vt -0.097545 -0.333333
vt 0.097545 -0.333333
vt -0.097545 -0.333333
vt 0.097545 -0.333333
vt -0.097545 -0.333333
vt 0.097545 -0.333333
vt -0.097545 -0.333333
vt 0.097545 -0.333333
vt -0.097545 -0.333333
vt 0.097545 -0.333333
vt -0.097545 -0.333333
vt 0.097545 -0.333333
vt -0.097545 -0.333333
vt 0.097545 -0.333333
vt -0.097545 -0.333333
vt 0.097545 -0.333333
vt -0.097545 -0.333333
vt 0.097545 -0.333333
vt -0.097545 -0.333333
vt 0.097545 0.333333
vt -0.097545 0.333333
vt -0.097545 0.333333
vt 0.097545 0.333333
vt 0.097545 0.333333
vt -0.097545 0.333333
vt 0.097545 0.333333
vt -0.097545 0.333333
vt 0.097545 0.333333
vt -0.097545 0.333333
vt 0.097545 0.333333
vt -0.097545 0.333333
vt 0.097545 0.333333
vt -0.097545 0.333333
vt 0.097545 0.333333
vt -0.097545 0.333333
vt 0.097545 0.333333
vt -0.097545 0.333333
vt 0.097545 0.333333
vt -0.097545 0.333333
vt 0.097545 0.333333
vt -0.097545 0.333333
vt 0.097545 0.333333
vt -0.097545 0.333333
vt 0.097545 0.333333
vt -0.097545 0.333333
vt 0.097545 0.333333
vt -0.097545 0.333333
vt 0.097545 0.333333
vt -0.097545 0.333333
vt 0.097545 0.333333
vt -0.097545 0.333333

vn -0.0000 -1.0000 -0.0000
vn -0.0000 1.0000 -0.0000
vn -0.9808 -0.0000 0.1951
vn -0.8315 -0.0000 0.5556
vn -0.5556 -0.0000 0.8315
vn -0.1951 -0.0000 0.9808
vn 0.1951 -0.0000 0.9808
vn 0.5556 -0.0000 0.8315
vn 0.8315 -0.0000 0.5556
vn 0.9808 -0.0000 0.1951
vn 0.9808 -0.0000 -0.1951
vn 0.8315 -0.0000 -0.5556
vn 0.5556 -0.0000 -0.8315
vn 0.1951 -0.0000 -0.9808
vn -0.1951 -0.0000 -0.9808
vn -0.5556 -0.0000 -0.8315
vn -0.8315 -0.0000 -0.5556
vn -0.9808 -0.0000 -0.1951

usemtl ProBuilderDefault
f 1/1/1 2/4/1 3/5/1
f 3/5/1 2/4/1 4/8/1
f 4/8/1 2/4/1 5/11/1
f 5/11/1 2/4/1 6/14/1
f 6/14/1 2/4/1 7/17/1
f 7/17/1 2/4/1 8/20/1
f 8/20/1 2/4/1 9/23/1
f 9/23/1 2/4/1 10/26/1
f 10/26/1 2/4/1 11/29/1
f 11/29/1 2/4/1 12/32/1
f 12/32/1 2/4/1 13/35/1
f 13/35/1 2/4/1 14/38/1
f 14/38/1 2/4/1 15/41/1
f 15/41/1 2/4/1 16/44/1
f 16/44/1 2/4/1 17/47/1
f 17/47/1 2/4/1 1/1/1
f 18/50/2 19/53/2 20/54/2
f 21/57/2 19/53/2 18/50/2
f 22/60/2 19/53/2 21/57/2
f 23/63/2 19/53/2 22/60/2
f 24/66/2 19/53/2 23/63/2
f 25/69/2 19/53/2 24/66/2
f 26/72/2 19/53/2 25/69/2
f 27/75/2 19/53/2 26/72/2
f 28/78/2 19/53/2 27/75/2
f 29/81/2 19/53/2 28/78/2
f 30/84/2 19/53/2 29/81/2
f 31/87/2 19/53/2 30/84/2
f 32/90/2 19/53/2 31/87/2
f 33/93/2 19/53/2 32/90/2
f 34/96/2 19/53/2 33/93/2
f 20/54/2 19/53/2 34/96/2
f 35/99/3 36/101/3 1/2/3
f 1/2/3 3/6/3 35/99/3
f 37/103/4 35/100/4 3/7/4
f 3/7/4 4/9/4 37/103/4
f 38/105/5 37/104/5 4/10/5
f 4/10/5 5/12/5 38/105/5
f 39/107/6 38/106/6 5/13/6
f 5/13/6 6/15/6 39/107/6
f 40/109/7 39/108/7 6/16/7
f 6/16/7 7/18/7 40/109/7
f 41/111/8 40/110/8 7/19/8
f 7/19/8 8/21/8 41/111/8
f 42/113/9 41/112/9 8/22/9
f 8/22/9 9/24/9 42/113/9
f 43/115/10 42/114/10 9/25/10
f 9/25/10 10/27/10 43/115/10
f 44/117/11 43/116/11 10/28/11
f 10/28/11 11/30/11 44/117/11
f 45/119/12 44/118/12 11/31/12
f 11/31/12 12/33/12 45/119/12
f 46/121/13 45/120/13 12/34/13
f 12/34/13 13/36/13 46/121/13
f 47/123/14 46/122/14 13/37/14
f 13/37/14 14/39/14 47/123/14
f 48/125/15 47/124/15 14/40/15
f 14/40/15 15/42/15 48/125/15
f 49/127/16 48/126/16 15/43/16
f 15/43/16 16/45/16 49/127/16
f 50/129/17 49/128/17 16/46/17
f 16/46/17 17/48/17 50/129/17
f 36/102/18 50/130/18 17/49/18
f 17/49/18 1/3/18 36/102/18
f 51/131/3 52/133/3 36/101/3
f 36/101/3 35/99/3 51/131/3
f 53/135/4 51/132/4 35/100/4
f 35/100/4 37/103/4 53/135/4
f 54/137/5 53/136/5 37/104/5
f 37/104/5 38/105/5 54/137/5
f 55/139/6 54/138/6 38/106/6
f 38/106/6 39/107/6 55/139/6
f 56/141/7 55/140/7 39/108/7
f 39/108/7 40/109/7 56/141/7
f 57/143/8 56/142/8 40/110/8
f 40/110/8 41/111/8 57/143/8
f 58/145/9 57/144/9 41/112/9
f 41/112/9 42/113/9 58/145/9
f 59/147/10 58/146/10 42/114/10
f 42/114/10 43/115/10 59/147/10
f 60/149/11 59/148/11 43/116/11
f 43/116/11 44/117/11 60/149/11
f 61/151/12 60/150/12 44/118/12
f 44/118/12 45/119/12 61/151/12
f 62/153/13 61/152/13 45/120/13
f 45/120/13 46/121/13 62/153/13
f 63/155/14 62/154/14 46/122/14
f 46/122/14 47/123/14 63/155/14
f 64/157/15 63/156/15 47/124/15
f 47/124/15 48/125/15 64/157/15
f 65/159/16 64/158/16 48/126/16
f 48/126/16 49/127/16 65/159/16
f 66/161/17 65/160/17 49/128/17
f 49/128/17 50/129/17 66/161/17
f 52/134/18 66/162/18 50/130/18
f 50/130/18 36/102/18 52/134/18
f 18/51/3 20/55/3 52/133/3
f 52/133/3 51/131/3 18/51/3
f 21/58/4 18/52/4 51/132/4
f 51/132/4 53/135/4 21/58/4
f 22/61/5 21/59/5 53/136/5
f 53/136/5 54/137/5 22/61/5
f 23/64/6 22/62/6 54/138/6
f 54/138/6 55/139/6 23/64/6
f 24/67/7 23/65/7 55/140/7
f 55/140/7 56/141/7 24/67/7
f 25/70/8 24/68/8 56/142/8
f 56/142/8 57/143/8 25/70/8
f 26/73/9 25/71/9 57/144/9
f 57/144/9 58/145/9 26/73/9
f 27/76/10 26/74/10 58/146/10
f 58/146/10 59/147/10 27/76/10
f 28/79/11 27/77/11 59/148/11
f 59/148/11 60/149/11 28/79/11
f 29/82/12 28/80/12 60/150/12
f 60/150/12 61/151/12 29/82/12
f 30/85/13 29/83/13 61/152/13
f 61/152/13 62/153/13 30/85/13
f 31/88/14 30/86/14 62/154/14
f 62/154/14 63/155/14 31/88/14
f 32/91/15 31/89/15 63/156/15
f 63/156/15 64/157/15 32/91/15
f 33/94/16 32/92/16 64/158/16
f 64/158/16 65/159/16 33/94/16
f 34/97/17 33/95/17 65/160/17
f 65/160/17 66/161/17 34/97/17
f 20/56/18 34/98/18 66/162/18
f 66/162/18 52/134/18 20/56/18

