# Blender 3.2.2
# www.blender.org
mtllib player_model_0.5_2.mtl
o Cylinder
v 0.000000 0.000000 -0.500000
v 0.000000 2.000000 -0.500000
v 0.097545 2.000000 -0.490393
v 0.097545 0.000000 -0.490393
v 0.191342 2.000000 -0.461940
v 0.191342 0.000000 -0.461940
v 0.277785 2.000000 -0.415735
v 0.277785 0.000000 -0.415735
v 0.353553 2.000000 -0.353553
v 0.353553 0.000000 -0.353553
v 0.415735 2.000000 -0.277785
v 0.415735 0.000000 -0.277785
v 0.461940 2.000000 -0.191342
v 0.461940 0.000000 -0.191342
v 0.490393 2.000000 -0.097545
v 0.490393 0.000000 -0.097545
v 0.500000 2.000000 0.000000
v 0.500000 0.000000 0.000000
v 0.490393 2.000000 0.097545
v 0.490393 -0.000000 0.097545
v 0.461940 2.000000 0.191342
v 0.461940 -0.000000 0.191342
v 0.415735 2.000000 0.277785
v 0.415735 -0.000000 0.277785
v 0.353553 2.000000 0.353553
v 0.353553 -0.000000 0.353553
v 0.277785 2.000000 0.415735
v 0.277785 -0.000000 0.415735
v 0.191342 2.000000 0.461940
v 0.191342 -0.000000 0.461940
v 0.097545 2.000000 0.490393
v 0.097545 -0.000000 0.490393
v 0.000000 2.000000 0.500000
v 0.000000 -0.000000 0.500000
v -0.097545 2.000000 0.490393
v -0.097545 -0.000000 0.490393
v -0.191342 2.000000 0.461940
v -0.191342 -0.000000 0.461940
v -0.277785 2.000000 0.415735
v -0.277785 -0.000000 0.415735
v -0.353553 2.000000 0.353553
v -0.353553 -0.000000 0.353553
v -0.415735 2.000000 0.277785
v -0.415735 -0.000000 0.277785
v -0.461940 2.000000 0.191342
v -0.461940 -0.000000 0.191342
v -0.490393 2.000000 0.097545
v -0.490393 -0.000000 0.097545
v -0.500000 2.000000 0.000000
v -0.500000 0.000000 0.000000
v -0.490393 2.000000 -0.097545
v -0.490393 0.000000 -0.097545
v -0.461940 2.000000 -0.191342
v -0.461940 0.000000 -0.191342
v -0.415735 2.000000 -0.277785
v -0.415735 0.000000 -0.277785
v -0.353553 2.000000 -0.353553
v -0.353553 0.000000 -0.353553
v -0.277785 2.000000 -0.415735
v -0.277785 0.000000 -0.415735
v -0.191342 2.000000 -0.461940
v -0.191342 0.000000 -0.461940
v -0.097545 2.000000 -0.490393
v -0.097545 0.000000 -0.490393
v -0.251788 1.516599 -0.134816
v -0.251788 1.767742 -0.134816
v -0.251788 1.767742 -0.541359
v -0.251788 1.516599 -0.541359
v 0.000000 1.516599 -0.567202
v 0.000000 1.767742 -0.567202
v 0.251789 1.767742 -0.541359
v 0.251789 1.516599 -0.541359
v 0.251789 1.767742 -0.134816
v 0.251789 1.516599 -0.134816
v 0.000000 1.516599 -0.160659
v 0.000000 1.767742 -0.160659
v 0.029820 0.108918 0.798069
v -0.239187 0.012068 0.422950
v -0.138068 0.208677 0.422950
v 0.239187 0.012068 0.422950
v 0.138068 0.208677 0.422950
v 0.054440 0.089591 0.712701
v -0.094114 0.012068 0.713095
v 0.094114 0.012068 0.713095
v -0.054440 0.089591 0.712701
v -0.051552 0.078089 0.827271
v 0.051552 0.078089 0.827271
v -0.029820 0.108918 0.798069
v 0.007647 0.167746 0.826467
v -0.013221 0.167115 0.837339
v 0.013221 0.167115 0.837339
v -0.007648 0.167746 0.826467
v -0.000000 0.205897 0.812670
vn 0.0980 -0.0000 -0.9952
vn 0.2903 -0.0000 -0.9569
vn 0.4714 -0.0000 -0.8819
vn 0.6344 -0.0000 -0.7730
vn 0.7730 -0.0000 -0.6344
vn 0.8819 -0.0000 -0.4714
vn 0.9569 -0.0000 -0.2903
vn 0.9952 -0.0000 -0.0980
vn 0.9952 -0.0000 0.0980
vn 0.9569 -0.0000 0.2903
vn 0.8819 -0.0000 0.4714
vn 0.7730 -0.0000 0.6344
vn 0.6344 -0.0000 0.7730
vn 0.4714 -0.0000 0.8819
vn 0.2903 -0.0000 0.9569
vn 0.0980 -0.0000 0.9952
vn -0.0980 -0.0000 0.9952
vn -0.2903 -0.0000 0.9569
vn -0.4714 -0.0000 0.8819
vn -0.6344 -0.0000 0.7730
vn -0.7730 -0.0000 0.6344
vn -0.8819 -0.0000 0.4714
vn -0.9569 -0.0000 0.2903
vn -0.9952 -0.0000 0.0980
vn -0.9952 -0.0000 -0.0980
vn -0.9569 -0.0000 -0.2903
vn -0.8819 -0.0000 -0.4714
vn -0.7730 -0.0000 -0.6344
vn -0.6344 -0.0000 -0.7730
vn -0.4714 -0.0000 -0.8819
vn -0.0000 1.0000 -0.0000
vn -0.2903 -0.0000 -0.9569
vn -0.0980 -0.0000 -0.9952
vn -0.0000 -1.0000 -0.0000
vn -1.0000 -0.0000 -0.0000
vn 0.1021 -0.0000 -0.9948
vn 1.0000 -0.0000 -0.0000
vn 0.1021 -0.0000 0.9948
vn -0.1021 -0.0000 0.9948
vn -0.1021 -0.0000 -0.9948
vn 0.8591 0.5067 0.0725
vn -0.0000 -0.0000 -1.0000
vn 0.8126 0.4179 0.4063
vn -0.0000 0.9249 0.3801
vn -0.0000 0.4347 -0.9006
vn -0.8126 0.4179 0.4063
vn -0.0000 -0.8657 0.5006
vn -0.0000 0.9753 -0.2208
vn -0.8591 0.5067 0.0725
vn -0.0000 -0.1124 0.9937
vn -0.8682 0.4228 -0.2596
vn 0.8682 0.4228 -0.2596
vn 0.8612 -0.2273 -0.4546
vn 0.8612 -0.2273 -0.4547
vn -0.0000 -0.4472 -0.8944
vn -0.0000 0.4472 0.8944
vn -0.8612 -0.2273 -0.4546
vn -0.8612 -0.2273 -0.4547
vt 1.000000 0.500000
vt 0.000000 0.500000
vt 0.750000 0.490000
vt 1.000000 1.000000
vt 0.250000 0.490000
vt 0.000000 1.000000
vt 0.968750 1.000000
vt 0.296822 0.485388
vt 0.968750 0.500000
vt 0.796822 0.485388
vt 0.937500 1.000000
vt 0.341844 0.471731
vt 0.937500 0.500000
vt 0.841844 0.471731
vt 0.906250 1.000000
vt 0.383337 0.449553
vt 0.906250 0.500000
vt 0.883337 0.449553
vt 0.875000 1.000000
vt 0.419706 0.419706
vt 0.875000 0.500000
vt 0.919706 0.419706
vt 0.843750 1.000000
vt 0.449553 0.383337
vt 0.843750 0.500000
vt 0.949553 0.383337
vt 0.812500 1.000000
vt 0.471731 0.341844
vt 0.812500 0.500000
vt 0.971731 0.341844
vt 0.781250 1.000000
vt 0.485388 0.296822
vt 0.781250 0.500000
vt 0.985388 0.296822
vt 0.750000 1.000000
vt 0.490000 0.250000
vt 0.750000 0.500000
vt 0.990000 0.250000
vt 0.718750 1.000000
vt 0.485388 0.203178
vt 0.718750 0.500000
vt 0.985388 0.203178
vt 0.687500 1.000000
vt 0.471731 0.158156
vt 0.687500 0.500000
vt 0.971731 0.158156
vt 0.656250 1.000000
vt 0.449553 0.116663
vt 0.656250 0.500000
vt 0.949553 0.116663
vt 0.625000 1.000000
vt 0.419706 0.080294
vt 0.625000 0.500000
vt 0.919706 0.080294
vt 0.593750 1.000000
vt 0.383337 0.050447
vt 0.593750 0.500000
vt 0.883337 0.050447
vt 0.562500 1.000000
vt 0.341844 0.028269
vt 0.562500 0.500000
vt 0.841844 0.028269
vt 0.531250 1.000000
vt 0.296822 0.014612
vt 0.531250 0.500000
vt 0.796822 0.014612
vt 0.500000 1.000000
vt 0.250000 0.010000
vt 0.500000 0.500000
vt 0.750000 0.010000
vt 0.468750 1.000000
vt 0.203178 0.014612
vt 0.468750 0.500000
vt 0.703178 0.014612
vt 0.437500 1.000000
vt 0.158156 0.028269
vt 0.437500 0.500000
vt 0.658156 0.028269
vt 0.406250 1.000000
vt 0.116663 0.050447
vt 0.406250 0.500000
vt 0.616663 0.050447
vt 0.375000 1.000000
vt 0.080294 0.080294
vt 0.375000 0.500000
vt 0.580294 0.080294
vt 0.343750 1.000000
vt 0.050447 0.116663
vt 0.343750 0.500000
vt 0.550447 0.116663
vt 0.312500 1.000000
vt 0.028269 0.158156
vt 0.312500 0.500000
vt 0.528269 0.158156
vt 0.281250 1.000000
vt 0.014612 0.203178
vt 0.281250 0.500000
vt 0.514612 0.203178
vt 0.250000 1.000000
vt 0.010000 0.250000
vt 0.250000 0.500000
vt 0.510000 0.250000
vt 0.218750 1.000000
vt 0.014612 0.296822
vt 0.218750 0.500000
vt 0.514612 0.296822
vt 0.187500 1.000000
vt 0.028269 0.341844
vt 0.187500 0.500000
vt 0.528269 0.341844
vt 0.156250 1.000000
vt 0.050447 0.383337
vt 0.156250 0.500000
vt 0.550447 0.383337
vt 0.125000 1.000000
vt 0.080294 0.419706
vt 0.125000 0.500000
vt 0.580294 0.419706
vt 0.093750 1.000000
vt 0.116663 0.449553
vt 0.093750 0.500000
vt 0.616663 0.449553
vt 0.158156 0.471731
vt 0.062500 1.000000
vt 0.062500 0.500000
vt 0.658156 0.471731
vt 0.203178 0.485388
vt 0.031250 1.000000
vt 0.031250 0.500000
vt 0.703178 0.485388
vt 0.375000 0.000000
vt 0.375000 1.000000
vt 0.125000 0.750000
vt 0.625000 0.000000
vt 0.625000 1.000000
vt 0.875000 0.750000
vt 0.875000 0.500000
vt 0.625000 0.250000
vt 0.125000 0.500000
vt 0.375000 0.250000
vt 0.250000 0.500000
vt 0.375000 0.375000
vt 0.750000 0.500000
vt 0.625000 0.375000
vt 0.625000 0.500000
vt 0.375000 0.500000
vt 0.625000 0.750000
vt 0.375000 0.750000
vt 0.250000 0.750000
vt 0.375000 0.875000
vt 0.750000 0.750000
vt 0.625000 0.875000
vt 0.625000 0.651425
vt 0.473575 0.651425
vt 0.125000 0.500000
vt 0.375000 0.250000
vt 0.875000 0.500000
vt 0.625000 0.250000
vt 0.375000 0.500000
vt 0.625000 0.500000
vt 0.473575 0.651425
vt 0.625000 0.651425
vt 0.125000 0.651631
vt 0.526631 0.098369
vt 0.375000 0.651631
vt 0.223369 0.651631
vt 0.723575 0.651425
vt 0.625000 0.098575
vt 0.125000 0.651631
vt 0.526631 0.098369
vt 0.223369 0.651631
vt 0.375000 0.651631
vt 0.723575 0.651425
vt 0.625000 0.098575
vt 0.473575 0.651425
vt 0.625000 0.651425
vt 0.125000 0.651631
vt 0.526631 0.098369
vt 0.375000 0.651631
vt 0.223369 0.651631
vt 0.723575 0.651425
vt 0.625000 0.098575
vt 0.375000 0.651631
vt 0.625000 0.651425
vt 0.125000 0.651631
vt 0.625000 0.098575
s 1
usemtl Default_OBJ
f 1/1/1 2/4/1 3/7/1 4/9/1
f 4/9/2 3/7/2 5/11/2 6/13/2
f 6/13/3 5/11/3 7/15/3 8/17/3
f 8/17/4 7/15/4 9/19/4 10/21/4
f 10/21/5 9/19/5 11/23/5 12/25/5
f 12/25/6 11/23/6 13/27/6 14/29/6
f 14/29/7 13/27/7 15/31/7 16/33/7
f 16/33/8 15/31/8 17/35/8 18/37/8
f 18/37/9 17/35/9 19/39/9 20/41/9
f 20/41/10 19/39/10 21/43/10 22/45/10
f 22/45/11 21/43/11 23/47/11 24/49/11
f 24/49/12 23/47/12 25/51/12 26/53/12
f 26/53/13 25/51/13 27/55/13 28/57/13
f 28/57/14 27/55/14 29/59/14 30/61/14
f 30/61/15 29/59/15 31/63/15 32/65/15
f 32/65/16 31/63/16 33/67/16 34/69/16
f 34/69/17 33/67/17 35/71/17 36/73/17
f 36/73/18 35/71/18 37/75/18 38/77/18
f 38/77/19 37/75/19 39/79/19 40/81/19
f 40/81/20 39/79/20 41/83/20 42/85/20
f 42/85/21 41/83/21 43/87/21 44/89/21
f 44/89/22 43/87/22 45/91/22 46/93/22
f 46/93/23 45/91/23 47/95/23 48/97/23
f 48/97/24 47/95/24 49/99/24 50/101/24
f 50/101/25 49/99/25 51/103/25 52/105/25
f 52/105/26 51/103/26 53/107/26 54/109/26
f 54/109/27 53/107/27 55/111/27 56/113/27
f 56/113/28 55/111/28 57/115/28 58/117/28
f 58/117/29 57/115/29 59/119/29 60/121/29
f 60/121/30 59/119/30 61/124/30 62/125/30
f 3/8/31 2/5/31 63/127/31 61/123/31 59/120/31 57/116/31 55/112/31 53/108/31 51/104/31 49/100/31 47/96/31 45/92/31 43/88/31 41/84/31 39/80/31 37/76/31 35/72/31 33/68/31 31/64/31 29/60/31 27/56/31 25/52/31 23/48/31 21/44/31 19/40/31 17/36/31 15/32/31 13/28/31 11/24/31 9/20/31 7/16/31 5/12/31
f 62/125/32 61/124/32 63/128/32 64/129/32
f 64/129/33 63/128/33 2/6/33 1/2/33
f 1/3/34 4/10/34 6/14/34 8/18/34 10/22/34 12/26/34 14/30/34 16/34/34 18/38/34 20/42/34 22/46/34 24/50/34 26/54/34 28/58/34 30/62/34 32/66/34 34/70/34 36/74/34 38/78/34 40/82/34 42/86/34 44/90/34 46/94/34 48/98/34 50/102/34 52/106/34 54/110/34 56/114/34 58/118/34 60/122/34 62/126/34 64/130/34
f 65/131/35 66/134/35 67/138/35 68/140/35
f 69/142/36 70/144/36 71/145/36 72/146/36
f 72/146/37 71/145/37 73/147/37 74/148/37
f 75/150/38 76/152/38 66/135/38 65/132/38
f 69/141/34 72/146/34 74/148/34 75/149/34
f 70/143/31 67/137/31 66/136/31 76/151/31
f 71/145/31 70/143/31 76/151/31 73/147/31
f 68/139/34 69/141/34 75/149/34 65/133/34
f 74/148/39 73/147/39 76/152/39 75/150/39
f 68/140/40 67/138/40 70/144/40 69/142/40
s 0
f 84/165/41 82/161/41 77/154/41 87/172/41
f 78/156/42 79/158/42 81/160/42 80/159/42
f 80/159/43 81/160/43 82/161/43 84/165/43
f 78/155/34 80/159/34 84/166/34 83/163/34
f 81/160/44 79/157/44 85/167/44 82/162/44
f 77/153/45 88/173/45 92/181/45 89/176/45
f 83/164/46 85/168/46 79/158/46 78/156/46
f 83/163/47 84/166/47 87/171/47 86/169/47
f 82/162/48 85/167/48 88/173/48 77/153/48
f 85/168/49 83/164/49 86/170/49 88/174/49
f 86/169/50 87/171/50 91/180/50 90/177/50
f 88/174/51 86/170/51 90/178/51 92/182/51
f 87/172/52 77/154/52 89/175/52 91/179/52
f 91/179/53 89/175/53 93/183/54
f 89/176/55 92/181/55 93/184/55
f 90/177/56 91/180/56 93/185/56
f 92/182/57 90/178/57 93/186/58
