# ProBuilder 6.0.5
# https://unity3d.com/unity/features/worldbuilding/probuilder
# 2025/05/17 5:14:15

mtllib ./probuilder_example.mtl
o probuilder_example

g Arch
v 0.6386794 7.507106 -3.5
v 1.345786 6.8 -3.5
v 0.6386794 7.507106 -4.5
v 1.345786 6.8 -4.5
v 1.287526 7.940652 -4.5
v 1.287526 7.940652 -3.5
v 1.67021 7.016773 -4.5
v 1.67021 7.016773 -3.5
v 2.052893 8.092893 -4.5
v 2.052893 8.092893 -3.5
v 2.052893 7.092893 -4.5
v 2.052893 7.092893 -3.5
v 2.81826 7.940652 -4.5
v 2.81826 7.940652 -3.5
v 2.435577 7.016773 -4.5
v 2.435577 7.016773 -3.5
v 3.467107 7.507107 -4.5
v 3.467107 7.507107 -3.5
v 2.76 6.8 -4.5
v 2.76 6.8 -3.5
v 3.900652 6.858261 -4.5
v 3.900652 6.858261 -3.5
v 2.976773 6.475577 -4.5
v 2.976773 6.475577 -3.5
v 4.052894 6.092894 -4.5
v 4.052894 6.092894 -3.5
v 3.052894 6.092894 -4.5
v 3.052894 6.092894 -3.5
v 3.900653 5.327527 -4.5
v 3.900653 5.327527 -3.5
v 2.976773 5.71021 -4.5
v 2.976773 5.71021 -3.5
v 3.467108 4.67868 -4.5
v 3.467108 4.67868 -3.5
v 2.760001 5.385787 -4.5
v 2.760001 5.385787 -3.5
v 0.6386794 7.507106 2
v 1.287526 7.940652 2
v 1.345786 6.8 2
v 1.670211 7.016771 2
v 4.052893 6.092894 -9
v 3.900653 6.858261 -9
v 3.052895 6.092894 -9
v 2.976773 6.475577 -9
v 25.35408 -4.725186E-07 -24.71662
v 25.35408 -4.725186E-07 -16.38329
v 17.02075 6.134155E-08 -24.71662
v 17.02075 6.134155E-08 -16.38329
v 25.35408 -4.725186E-07 -8.049953
v 17.02075 6.134155E-08 -8.049953
v 25.35408 -4.725186E-07 0.2833815
v 17.02075 6.134155E-08 0.2833815
v 25.35408 -4.725186E-07 8.616715
v 17.02075 6.134155E-08 8.616715
v 25.35408 -4.725186E-07 16.95005
v 17.02075 6.134155E-08 16.95005
v 25.35408 -4.725186E-07 25.28338
v 17.02075 6.134155E-08 25.28338
v 8.687418 8.943937E-08 -24.71662
v 8.687418 8.943937E-08 -16.38329
v 8.687418 8.943937E-08 -8.049953
v 8.687418 8.943937E-08 0.2833815
v 8.687418 8.943937E-08 8.616715
v 8.687418 8.943937E-08 16.95005
v 8.687418 8.943937E-08 25.28338
v 0.3540839 -5.105042E-08 -24.71662
v 0.3540839 -5.105042E-08 -16.38329
v 0.3540839 -5.105042E-08 -8.049953
v 0.3540839 -5.105042E-08 0.2833815
v 0.3540839 -5.105042E-08 8.616715
v 0.3540839 -5.105042E-08 16.95005
v 0.3540839 -5.105042E-08 25.28338
v -7.97925 3.142219E-07 -24.71662
v -7.97925 3.142219E-07 -16.38329
v 0.3540839 9 -16.38329
v 0.3540839 9 -8.049953
v -7.97925 9 -16.38329
v -7.97925 9 -8.049953
v -7.97925 3.142219E-07 -8.049953
v -7.97925 3.142219E-07 0.2833815
v -7.97925 3.142219E-07 8.616715
v -7.97925 3.142219E-07 16.95005
v -7.97925 3.142219E-07 25.28338
v -16.31258 2.196781E-06 -24.71662
v -16.31258 2.196781E-06 -16.38329
v -16.31258 2.196781E-06 -8.049953
v -16.31258 2.196781E-06 0.2833815
v -16.31258 2.196781E-06 8.616715
v -16.31258 2.196781E-06 16.95005
v -16.31258 2.196781E-06 25.28338
v -24.64592 3.324317E-08 -24.71662
v -24.64592 3.324317E-08 -16.38329
v -24.64592 3.324317E-08 -8.049953
v -24.64592 3.324317E-08 0.2833815
v -24.64592 3.324317E-08 8.616715
v -24.64592 3.324317E-08 16.95005
v -24.64592 3.324317E-08 25.28338
v 0.354084 8.5 -16.38329
v 0.354084 8.5 -8.049953
v -7.97925 8.500001 -16.38329
v -7.97925 8.500001 -8.049953
v 16.85408 8.5 -16.38329
v 16.85408 8.5 -8.049953
v 16.85408 9 -16.38329
v 16.85408 9 -8.049953

vt -2 0.5
vt -1 0.5
vt -2 -0.5
vt -1 -0.5
vt -0.5 -1.370966
vt -0.5 -0.5906047
vt 0.5 -1.370966
vt 0.5 -0.5906047
vt 0.5 -0.785695
vt 0.5 -1.175876
vt -0.5 -0.785695
vt -0.5 -1.175876
vt -0.5 -1.22165
vt -0.5 -0.4412889
vt 0.5 -1.22165
vt 0.5 -0.4412889
vt 0.5 -0.6363792
vt 0.5 -1.02656
vt -0.5 -0.6363792
vt -0.5 -1.02656
vt 0.9457509 -0.5
vt 0.1653896 -0.5
vt 0.9457509 0.5
vt 0.1653896 0.5
vt -0.3604799 -0.5
vt -0.7506605 -0.5
vt -0.3604799 0.5
vt -0.7506605 0.5
vt 0.585271 -0.5
vt -0.1950904 -0.5
vt 0.585271 0.5
vt -0.1950904 0.5
vt 5.449978E-08 -0.5
vt -0.3901806 -0.5
vt 5.449978E-08 0.5
vt -0.3901806 0.5
vt 0.1950901 -0.5
vt -0.585271 -0.5
vt 0.1950901 0.5
vt -0.585271 0.5
vt 0.3901806 -0.5
vt 0.3901806 0.5
vt -0.1653894 -0.5
vt -0.9457508 -0.5
vt -0.1653894 0.5
vt -0.9457508 0.5
vt 0.7506605 -0.5
vt 0.3604798 -0.5
vt 0.7506605 0.5
vt 0.3604798 0.5
vt 1 0.5
vt 2 0.5
vt 1 -0.5
vt 2 -0.5
vt -2 -1
vt -1.847759 -0.2346325
vt -1 -1
vt -0.9238777 -0.6173172
vt 1.847759 -0.234633
vt 2 -0.9999999
vt 0.9238795 -0.6173165
vt 1 -0.9999999
vt -1.414214 0.4142136
vt -0.7071068 -0.2928932
vt 1.414214 0.4142136
vt 0.7071068 -0.2928932
vt -0.7653669 0.8477591
vt -0.3826834 -0.07612044
vt 0.7653669 0.8477591
vt 0.3826834 -0.07612044
vt 8.742278E-08 1
vt 4.371139E-08 5.960464E-08
vt 2 -1
vt 1 -1
vt -0.9457508 -0.4999999
vt -0.1653894 -0.4999999
vt -0.9457507 -5
vt -0.16539 -5
vt 0.2928932 -0.5
vt 1.292893 -0.5
vt 0.2928943 -5
vt 1.292893 -5
vt -0.5000001 1.07612
vt -0.5000001 0.0761205
vt -5 1.07612
vt -5 0.07612
vt 0.3604793 -5
vt 0.7506608 -5
vt 6 -1.370966
vt 6 -0.5906042
vt -1 6
vt -2 6
vt 1.617317 0.4999999
vt 0.6173166 0.4999999
vt 1.617317 6
vt 0.6173146 6
vt -0.4999997 -0.785695
vt -0.4999996 -1.175876
vt -6 -0.7856957
vt -6 -1.175876
vt -25.35408 -24.71662
vt -25.35408 -16.38329
vt -17.02075 -24.71662
vt -17.02075 -16.38329
vt -25.35409 -8.049953
vt -17.02075 -8.049953
vt -25.35408 0.2833815
vt -17.02075 0.2833815
vt -25.35408 8.616715
vt -17.02075 8.616715
vt -25.35409 16.95005
vt -17.02075 16.95005
vt -25.35408 25.28338
vt -17.02075 25.28338
vt -8.687418 -24.71662
vt -8.687418 -16.38329
vt -8.687418 -8.049953
vt -8.687418 0.2833815
vt -8.687418 8.616715
vt -8.687418 16.95005
vt -8.687418 25.28338
vt -0.3540843 -24.71662
vt -0.3540843 -16.38329
vt -0.3540838 -8.049953
vt -0.3540838 0.2833815
vt -0.3540838 8.616715
vt -0.3540838 16.95005
vt -0.3540843 25.28338
vt 7.97925 -24.71662
vt 7.97925 -16.38329
vt 7.97925 -8.049953
vt 7.97925 0.2833815
vt 7.97925 8.616715
vt 7.97925 16.95005
vt 7.97925 25.28338
vt 16.31258 -24.71662
vt 16.31258 -16.38329
vt 16.31258 -8.049953
vt 16.31258 0.2833815
vt 16.31258 8.616715
vt 16.31258 16.95005
vt 16.31258 25.28338
vt 24.64592 -24.71662
vt 24.64592 -16.38329
vt 24.64592 -8.049953
vt 24.64592 0.2833815
vt 24.64592 8.616715
vt 24.64592 16.95005
vt 24.64592 25.28338
vt 16.38329 0
vt 8.049953 0
vt 16.38329 8.5
vt 8.049953 8.5
vt 7.97925 0
vt -0.3540831 0
vt 7.979249 8.5
vt -0.3540845 8.5
vt 0.354084 0
vt -7.979249 0
vt 0.354084 8.5
vt -7.97925 8.499999
vt -8.049953 0
vt -16.38329 0
vt -8.049953 8.5
vt -16.38329 8.5
vt 16.38329 9
vt 8.049953 9
vt 7.97925 9
vt -0.3540845 9
vt -7.97925 8.5
vt 0.3540835 9
vt -7.97925 9
vt -8.049953 9
vt -16.38329 9
vt 0.354084 -16.38329
vt 0.354084 -8.049953
vt 16.85408 -16.38329
vt 16.85408 -8.049953
vt -16.85408 9.000002
vt -16.85408 8.5
vt 16.85408 8.5
vt 16.85408 9.000001
vt -16.85408 -8.049953
vt -16.85408 -16.38329

vn -0.7071065 -0.7071071 0
vn -0.5555705 0.8314694 0
vn 0.5555705 -0.8314694 0
vn -0.1950907 0.9807852 0
vn 0.1950907 -0.9807852 0
vn 0.1950899 0.9807854 0
vn -0.1950899 -0.9807854 0
vn 0.5555699 0.8314698 0
vn -0.5555698 -0.8314698 0
vn 0.8314693 0.5555707 0
vn -0.8314694 -0.5555706 0
vn 0.9807852 0.1950907 0
vn -0.9807852 -0.1950907 0
vn 0.9807854 -0.1950898 0
vn -0.9807854 0.1950899 0
vn 0.8314698 -0.5555698 0
vn -0.8314698 0.5555698 0
vn 0 0 1
vn 0 0 -1
vn 4.214685E-07 -0.9999999 9.365966E-09
vn -0.3826838 0.9238794 -1.417779E-07
vn 0.9238794 0.3826838 -7.352159E-08
vn 8.42937E-08 0.9999999 0
vn 4.214683E-08 1 0
vn 1 4.214687E-08 0
vn -1 -4.214687E-08 0
vn 0.9999999 4.214685E-07 0
vn -0.9999999 2.528811E-07 0

usemtl ProBuilderDefault
f 3/3/1 4/4/1 2/2/1 1/1/1
f 1/7/2 6/8/2 5/6/2 3/5/2
f 8/11/3 2/12/3 4/10/3 7/9/3
f 6/15/4 10/16/4 9/14/4 5/13/4
f 12/19/5 8/20/5 7/18/5 11/17/5
f 10/23/6 14/24/6 13/22/6 9/21/6
f 16/27/7 12/28/7 11/26/7 15/25/7
f 14/31/8 18/32/8 17/30/8 13/29/8
f 20/35/9 16/36/9 15/34/9 19/33/9
f 18/39/10 22/40/10 21/38/10 17/37/10
f 24/42/11 20/35/11 19/33/11 23/41/11
f 22/45/12 26/46/12 25/44/12 21/43/12
f 28/49/13 24/50/13 23/48/13 27/47/13
f 26/14/14 30/13/14 29/15/14 25/16/14
f 32/18/15 28/17/15 27/19/15 31/20/15
f 30/6/16 34/5/16 33/7/16 29/8/16
f 36/10/17 32/9/17 31/11/17 35/12/17
f 35/53/1 33/54/1 34/52/1 36/51/1
f 39/57/18 40/58/18 38/56/18 37/55/18
f 7/61/19 4/62/19 3/60/19 5/59/19
f 8/58/18 12/64/18 10/63/18 6/56/18
f 11/66/19 7/61/19 5/59/19 9/65/19
f 12/64/18 16/68/18 14/67/18 10/63/18
f 15/70/19 11/66/19 9/65/19 13/69/19
f 16/68/18 20/72/18 18/71/18 14/67/18
f 19/72/19 15/70/19 13/69/19 17/71/19
f 20/72/18 24/70/18 22/69/18 18/71/18
f 23/68/19 19/72/19 17/71/19 21/67/19
f 24/70/18 28/66/18 26/65/18 22/69/18
f 43/64/19 44/68/19 42/67/19 41/63/19
f 28/66/18 32/61/18 30/59/18 26/65/18
f 31/58/19 27/64/19 25/63/19 29/56/19
f 32/61/18 36/74/18 34/73/18 30/59/18
f 35/57/19 31/58/19 29/56/19 33/55/19
f 41/77/12 42/78/12 21/76/12 25/75/12
f 43/81/20 41/82/20 25/80/20 27/79/20
f 42/85/21 44/86/21 23/84/21 21/83/21
f 44/87/13 43/88/13 27/47/13 23/48/13
f 37/89/2 38/90/2 6/8/2 1/7/2
f 39/91/1 37/92/1 1/1/1 2/2/1
f 38/95/22 40/96/22 8/94/22 6/93/22
f 40/99/3 39/100/3 2/98/3 8/97/3
f 47/103/23 48/104/23 46/102/23 45/101/23
f 48/104/24 50/106/24 49/105/24 46/102/24
f 50/106/23 52/108/23 51/107/23 49/105/23
f 52/108/23 54/110/23 53/109/23 51/107/23
f 54/110/24 56/112/24 55/111/24 53/109/24
f 56/112/23 58/114/23 57/113/23 55/111/23
f 59/115/23 60/116/23 48/104/23 47/103/23
f 60/116/24 61/117/24 50/106/24 48/104/24
f 61/117/24 62/118/24 52/108/24 50/106/24
f 62/118/24 63/119/24 54/110/24 52/108/24
f 63/119/24 64/120/24 56/112/24 54/110/24
f 64/120/23 65/121/23 58/114/23 56/112/23
f 66/122/23 67/123/23 60/116/23 59/115/23
f 67/123/24 68/124/24 61/117/24 60/116/24
f 68/124/24 69/125/24 62/118/24 61/117/24
f 69/125/24 70/126/24 63/119/24 62/118/24
f 70/126/24 71/127/24 64/120/24 63/119/24
f 71/127/23 72/128/23 65/121/23 64/120/23
f 73/129/23 74/130/23 67/123/23 66/122/23
f 77/130/23 78/131/23 76/124/23 75/123/23
f 79/131/23 80/132/23 69/125/23 68/124/23
f 80/132/23 81/133/23 70/126/23 69/125/23
f 81/133/24 82/134/24 71/127/24 70/126/24
f 82/134/23 83/135/23 72/128/23 71/127/23
f 84/136/23 85/137/23 74/130/23 73/129/23
f 85/137/24 86/138/24 79/131/24 74/130/24
f 86/138/23 87/139/23 80/132/23 79/131/23
f 87/139/23 88/140/23 81/133/23 80/132/23
f 88/140/24 89/141/24 82/134/24 81/133/24
f 89/141/23 90/142/23 83/135/23 82/134/23
f 91/143/24 92/144/24 85/137/24 84/136/24
f 92/144/23 93/145/23 86/138/23 85/137/23
f 93/145/24 94/146/24 87/139/24 86/138/24
f 94/146/24 95/147/24 88/140/24 87/139/24
f 95/147/24 96/148/24 89/141/24 88/140/24
f 96/148/24 97/149/24 90/142/24 89/141/24
f 98/152/25 99/153/25 68/151/25 67/150/25
f 100/156/19 98/157/19 67/155/19 74/154/19
f 99/160/18 101/161/18 79/159/18 68/158/18
f 101/164/26 100/165/26 74/163/26 79/162/26
f 104/166/27 105/167/27 103/153/27 102/152/27
f 77/168/19 75/169/19 98/157/19 100/156/19
f 76/171/18 78/172/18 101/170/18 99/160/18
f 78/173/28 77/174/28 100/165/28 101/164/28
f 102/177/20 103/178/20 99/176/20 98/175/20
f 104/179/19 102/180/19 98/157/19 75/169/19
f 103/181/18 105/182/18 76/171/18 99/160/18
f 105/183/23 104/184/23 75/123/23 76/124/23

